<?xml version="1.0" encoding="UTF-8"?>
<svg id="Layer_1" data-name="Layer 1" xmlns="http://www.w3.org/2000/svg" viewBox="0 0 694 198">
  <defs>
    <style>
      .cls-1 {
        fill: none;
        stroke: #726455;
        stroke-miterlimit: 10;
        stroke-width: 3px;
      }

      .cls-2 {
        fill: #726455;
      }
    </style>
  </defs>
  <g>
    <path class="cls-2" d="M40.44,30.88h9.51v58.06c0,18.43-3.67,27.2-16.1,27.2s-16.23-8.77-16.23-27.2V30.88h9.51v56.72c0,7.99.34,15.99,6.79,15.99s6.52-7.99,6.52-15.99V30.88Z"/>
    <path class="cls-2" d="M81.87,30.88h9.51v83.26h-9.92l-7.4-29.64c-2.51-9.88-4.55-19.98-6.79-33.08h-.14c.34,6.88.75,15.32,1.02,23.76.27,8.33.48,16.65.48,23.31v15.65h-9.51V30.88h9.85l7.4,30.31c2.45,9.66,4.48,19.54,6.79,33.08h.14c-.34-7.55-.68-15.65-.95-23.64-.27-7.99-.48-15.99-.48-23.42v-16.32Z"/>
    <path class="cls-2" d="M100.88,114.14V30.88h19.83c2.31,0,6.93,1.67,9.85,9.44,2.17,5.77,2.78,14.99,2.78,28.75,0,16.43,0,35.41-7.81,42.85-2.11,2-4.69,2.22-7.06,2.22h-17.59ZM114.54,101.92c8.49,0,9.03-7.33,9.03-31.42,0-19.65-1.22-27.42-6.93-27.42h-6.25v58.83h4.14Z"/>
    <path class="cls-2" d="M141.84,114.14V30.88h26.76v12.21h-17.25v20.98h15.89v12.21h-15.89v25.64h17.25v12.21h-26.76Z"/>
    <path class="cls-2" d="M185.44,78.28v35.86h-9.51V30.88h18c8.22,0,14.47,4.66,14.47,19.98,0,9.1-1.43,18.65-7.81,20.09v.22c5.64,1.22,7.33,7.1,7.33,15.1,0,3.44-.27,23.87,2.04,26.31v1.55h-10.46c-1.15-5.33-.95-15.54-1.02-21.09-.07-5.11,0-12.1-3.26-13.65-2.58-1.22-5.37-1.11-8.08-1.11h-1.7ZM185.44,66.07h7.47c3.12-.33,5.57-3.66,5.57-11.99,0-9.33-2.38-10.88-5.98-10.99h-7.06v22.98Z"/>
    <path class="cls-2" d="M264.7,84.5c-.07,1.55-.14,3.22-.2,4.77-.47,15.21-3.6,26.86-14.19,26.86-15.62,0-16.64-16.21-16.64-38.41v-11.88c.41-21.2,1.43-36.97,16.64-36.97,8.49.22,13.24,7.33,13.92,21.54.14,2.11.27,4.22.2,6.33h-9.37c-.41-5.33-.07-15.32-4.75-15.32-7.47,0-6.86,14.54-6.86,20.98v23.09c0,6.88.34,18.09,6.86,18.09,5.23,0,4.62-13.76,4.82-19.09h9.58Z"/>
    <path class="cls-2" d="M271.83,65.85c.41-21.2,1.43-36.97,16.64-36.97s16.23,15.76,16.64,36.97v11.88c0,22.2-1.02,38.41-16.64,38.41s-16.64-16.21-16.64-38.41v-11.88ZM281.61,85.5c0,6.88.34,18.09,6.86,18.09s6.86-11.43,6.86-19.43v-21.31c0-6.66.2-21.42-6.86-21.42-7.47,0-6.86,14.54-6.86,20.98v23.09Z"/>
    <path class="cls-2" d="M336.56,30.88h9.51v83.26h-9.92l-7.4-29.64c-2.51-9.88-4.55-19.98-6.79-33.08h-.14c.34,6.88.75,15.32,1.02,23.76.27,8.33.48,16.65.48,23.31v15.65h-9.51V30.88h9.85l7.4,30.31c2.45,9.66,4.48,19.54,6.79,33.08h.14c-.34-7.55-.68-15.65-.95-23.64-.27-7.99-.48-15.99-.48-23.42v-16.32Z"/>
    <path class="cls-2" d="M374.73,56.19c.07-7.44-.34-14.76-5.57-14.76-3.19,0-5.23,2.11-5.23,7.77,0,6.33,2.44,8.77,5.43,11.88,3.12,3.22,8.9,9.44,11.55,13.65,3.26,5.22,4.28,10.21,4.28,17.43,0,15.76-6.38,23.98-15.69,23.98-11.41,0-15.48-10.43-15.48-25.31v-6.11h9.51v4.88c-.2,8.1,1.29,13.99,5.98,13.99,4.01,0,5.91-3.44,5.91-9.77,0-4.88-1.36-8.21-3.8-10.99-4.96-6.33-11.14-10.88-15.01-19.21-1.56-3.77-2.45-8.33-2.45-12.77,0-14.21,4.89-21.98,14.94-21.98,15.15,0,14.74,19.09,14.81,27.31h-9.17Z"/>
    <path class="cls-2" d="M389.6,30.88h31.72v12.21h-11.07v71.04h-9.51V43.09h-11.14v-12.21Z"/>
    <path class="cls-2" d="M436.4,78.28v35.86h-9.51V30.88h18c8.22,0,14.47,4.66,14.47,19.98,0,9.1-1.43,18.65-7.81,20.09v.22c5.64,1.22,7.33,7.1,7.33,15.1,0,3.44-.27,23.87,2.04,26.31v1.55h-10.46c-1.15-5.33-.95-15.54-1.02-21.09-.07-5.11,0-12.1-3.26-13.65-2.58-1.22-5.37-1.11-8.08-1.11h-1.7ZM436.4,66.07h7.47c3.12-.33,5.57-3.66,5.57-11.99,0-9.33-2.38-10.88-5.98-10.99h-7.06v22.98Z"/>
    <path class="cls-2" d="M491.34,30.88h9.51v58.06c0,18.43-3.67,27.2-16.1,27.2s-16.23-8.77-16.23-27.2V30.88h9.51v56.72c0,7.99.34,15.99,6.79,15.99s6.52-7.99,6.52-15.99V30.88Z"/>
    <path class="cls-2" d="M540.18,84.5c-.07,1.55-.14,3.22-.2,4.77-.47,15.21-3.6,26.86-14.19,26.86-15.62,0-16.64-16.21-16.64-38.41v-11.88c.41-21.2,1.43-36.97,16.64-36.97,8.49.22,13.24,7.33,13.92,21.54.14,2.11.27,4.22.2,6.33h-9.37c-.41-5.33-.07-15.32-4.75-15.32-7.47,0-6.86,14.54-6.86,20.98v23.09c0,6.88.34,18.09,6.86,18.09,5.23,0,4.62-13.76,4.82-19.09h9.58Z"/>
    <path class="cls-2" d="M544.32,30.88h31.72v12.21h-11.07v71.04h-9.51V43.09h-11.14v-12.21Z"/>
    <path class="cls-2" d="M581.81,114.14V30.88h9.51v83.26h-9.51Z"/>
    <path class="cls-2" d="M600.15,65.85c.41-21.2,1.43-36.97,16.64-36.97s16.23,15.76,16.64,36.97v11.88c0,22.2-1.02,38.41-16.64,38.41s-16.64-16.21-16.64-38.41v-11.88ZM609.93,85.5c0,6.88.34,18.09,6.86,18.09s6.86-11.43,6.86-19.43v-21.31c0-6.66.2-21.42-6.86-21.42-7.47,0-6.86,14.54-6.86,20.98v23.09Z"/>
    <path class="cls-2" d="M664.87,30.88h9.51v83.26h-9.92l-7.4-29.64c-2.51-9.88-4.55-19.98-6.79-33.08h-.14c.34,6.88.75,15.32,1.02,23.76.27,8.33.48,16.65.48,23.31v15.65h-9.51V30.88h9.85l7.4,30.31c2.45,9.66,4.48,19.54,6.79,33.08h.14c-.34-7.55-.68-15.65-.95-23.64-.27-7.99-.48-15.99-.48-23.42v-16.32Z"/>
  </g>
  <g>
    <path class="cls-2" d="M43.02,156.89v-21h8.01c3.75,0,4.9,3.02,4.9,5.96,0,1.79-.48,3.81-1.96,4.98-1.23.98-2.88,1.29-4.4,1.26h-2.63v8.79h-3.92ZM46.94,145.02h2.1c1.71,0,2.86-.73,2.86-3.28,0-2.41-.95-2.77-3.16-2.77h-1.79v6.05Z"/>
    <path class="cls-2" d="M58.75,156.89v-21h3.64v21h-3.64Z"/>
    <path class="cls-2" d="M65.95,146.53c-.17-3.72,1.74-5.85,5.32-5.85,5.07,0,5.6,2.63,5.6,6.94v2.13h-7.28v2.3c.03,2.07.81,2.46,1.9,2.46,1.34,0,1.74-.98,1.68-2.97h3.64c.14,3.53-1.32,5.77-5.04,5.77-4.2,0-5.91-1.99-5.82-6.64v-4.14ZM73.23,146.95v-1.37c-.03-1.6-.45-2.1-1.9-2.1-1.82,0-1.74,1.4-1.74,2.83v.64h3.64Z"/>
    <path class="cls-2" d="M87.34,156.89c-.25-.5-.28-1.06-.22-1.62h-.06c-.42.64-.9,1.18-1.46,1.51-.53.34-1.12.53-1.74.53-2.94,0-4.23-1.48-4.23-4.73,0-3.61,2.55-4.48,5.4-5.66,1.54-.64,2.1-1.34,1.79-2.63-.17-.7-.73-.81-1.71-.81-1.65,0-1.93.87-1.9,2.3h-3.47c-.03-3,.95-5.1,5.52-5.1,4.96,0,5.26,2.6,5.21,4.68v9.32c0,.76.11,1.48.31,2.21h-3.44ZM86.83,148.57c-.9.62-1.99,1.23-2.94,2.02-.53.45-.62,1.23-.62,1.9,0,1.2.36,2.02,1.71,2.02,2.16,0,1.76-2.72,1.85-4.23v-1.71Z"/>
    <path class="cls-2" d="M96.92,151.68c-.28,2.91.84,2.83,1.68,2.83,1.04,0,1.76-.76,1.51-1.76-.06-.9-1.09-1.4-1.79-1.88l-1.99-1.37c-1.82-1.26-3-2.72-3-4.98,0-2.44,1.93-3.84,5.43-3.84s5.15,1.85,5.07,5.24h-3.64c.08-1.76-.42-2.44-1.68-2.44-.87,0-1.54.39-1.54,1.29s.67,1.34,1.37,1.82l2.97,2.02c.92.53,2.38,2.04,2.49,3.11.31,2.74-.36,5.6-5.4,5.6-1.93,0-5.54-.81-5.12-5.63h3.64Z"/>
    <path class="cls-2" d="M106.38,146.53c-.17-3.72,1.74-5.85,5.32-5.85,5.07,0,5.6,2.63,5.6,6.94v2.13h-7.28v2.3c.03,2.07.81,2.46,1.9,2.46,1.34,0,1.74-.98,1.68-2.97h3.64c.14,3.53-1.32,5.77-5.04,5.77-4.2,0-5.91-1.99-5.82-6.64v-4.14ZM113.66,146.95v-1.37c-.03-1.6-.45-2.1-1.9-2.1-1.82,0-1.74,1.4-1.74,2.83v.64h3.64Z"/>
    <path class="cls-2" d="M142.81,142.27c.03-1.88-.14-3.72-2.3-3.72-1.32,0-2.16.53-2.16,1.96,0,1.6,1.01,2.21,2.24,3,1.29.81,3.67,2.38,4.76,3.44,1.34,1.32,1.76,2.58,1.76,4.4,0,3.98-2.63,6.05-6.47,6.05-4.7,0-6.38-2.63-6.38-6.38v-1.54h3.92v1.23c-.08,2.04.53,3.53,2.46,3.53,1.65,0,2.44-.87,2.44-2.46,0-1.23-.56-2.07-1.57-2.77-2.04-1.6-4.59-2.74-6.19-4.84-.64-.95-1.01-2.1-1.01-3.22,0-3.58,2.02-5.54,6.16-5.54,6.24,0,6.08,4.82,6.1,6.89h-3.78Z"/>
    <path class="cls-2" d="M155.52,156.94c-2.16.25-5.18.45-5.18-2.49v-10.7h-1.48v-2.66h1.46v-4.34h3.67v4.34h1.54v2.66h-1.54v9.8c.08.67,1.09.59,1.54.53v2.86Z"/>
    <path class="cls-2" d="M165.12,156.89c-.25-.5-.28-1.06-.22-1.62h-.06c-.42.64-.9,1.18-1.46,1.51-.53.34-1.12.53-1.74.53-2.94,0-4.23-1.48-4.23-4.73,0-3.61,2.55-4.48,5.4-5.66,1.54-.64,2.1-1.34,1.79-2.63-.17-.7-.73-.81-1.71-.81-1.65,0-1.93.87-1.9,2.3h-3.47c-.03-3,.95-5.1,5.52-5.1,4.96,0,5.26,2.6,5.21,4.68v9.32c0,.76.11,1.48.31,2.21h-3.44ZM164.62,148.57c-.9.62-1.99,1.23-2.94,2.02-.53.45-.62,1.23-.62,1.9,0,1.2.36,2.02,1.71,2.02,2.16,0,1.76-2.72,1.85-4.23v-1.71Z"/>
    <path class="cls-2" d="M175.59,142.72h.06c.81-1.82,2.44-2.04,3.28-2.04,2.07,0,3.75,1.2,3.64,4.03v12.18h-3.64v-10.53c0-1.54-.17-2.55-1.54-2.6s-1.85,1.23-1.79,2.91v10.22h-3.64v-15.79h3.64v1.62Z"/>
    <path class="cls-2" d="M192.73,155.21h-.06c-.7,1.6-1.71,2.02-3.14,2.1-3.08,0-3.72-2.8-3.81-5.32v-5.71c.08-4.34,1.46-5.54,3.81-5.6,1.54-.03,2.52.5,3.25,2.02h.06c-.08-.48-.11-.92-.11-1.4v-5.4h3.64v21h-3.64v-1.68ZM192.73,146.98c.06-1.26,0-3.5-1.71-3.5s-1.54,1.48-1.65,3.05v5.26c.08,1.51.48,2.72,1.6,2.72,1.18,0,1.76-.98,1.76-2.8v-4.73Z"/>
    <path class="cls-2" d="M207.07,156.89v-21h6.33c1.68,0,3.33.11,4.45,1.54.9,1.15,1.04,2.35,1.04,3.78,0,1.82-.39,3.61-2.52,4.4v.06c2.21.31,3.05,2.16,3.05,4.87,0,.87-.06,1.74-.28,2.58-.84,2.66-2.35,3.78-5.15,3.78h-6.92ZM211.71,144.37c.95,0,2.18.06,2.8-.73.36-.53.42-1.26.42-2.27,0-1.57-.34-2.35-2.13-2.41h-1.82v5.4h.73ZM211.83,153.81c.81,0,1.65.08,2.35-.22,1.06-.48,1.2-1.85,1.2-2.91,0-2.27-.45-3.22-2.88-3.22h-1.51v6.36h.84Z"/>
    <path class="cls-2" d="M224.79,141.1l1.6,8.37c.25,1.4.39,2.8.53,4.2h.06c.11-1.37.31-2.74.56-4.09l1.6-8.48h3.7l-3.84,16.02c-.92,3.58-1.01,5.82-6.05,5.1v-2.83c.59,0,2.16.31,2.16-.7,0-.56-.2-1.46-.34-2.02l-3.81-15.57h3.84Z"/>
  </g>
  <polyline class="cls-1" points="0 168.5 391.78 168.5 422 129 694 129"/>
  <path class="cls-2" d="M691,144h-275l7-10h268v10ZM691,147h-278l-7,10h285v-10ZM691,160h-287l-8,10h295v-10ZM691,173H4v10h687v-10ZM691,186H4v10h687v-10Z"/>
  <g>
    <path class="cls-2" d="M687.5,23.5v-13h3v13h-3ZM677.5,23.5v-13h6v13h-6ZM660.5,23.5v-13h11v13h-11ZM649.5,23.5v-13h6v13h-6ZM637.5,23.5v-13h8v13h-8ZM630.5,23.5v-13h3v13h-3ZM620.5,23.5v-13h6v13h-6ZM587.5,23.5v-13h29v13h-29ZM560.5,23.5v-13h20v13h-20ZM544.5,23.5v-13h11v13h-11ZM484.5,23.5v-13h13v13h-13ZM459.5,23.5v-13h8v13h-8ZM452.5,23.5v-13h3v13h-3ZM442.5,23.5v-13h6v13h-6ZM419.5,23.5v-13h20v13h-20ZM403.5,23.5v-13h11v13h-11ZM383.5,23.5v-13h2v13h-2ZM350.5,23.5v-13h29v13h-29ZM323.5,23.5v-13h20v13h-20ZM307.5,23.5v-13h11v13h-11ZM296.5,23.5v-13h6v13h-6ZM289.5,23.5v-13h3v13h-3ZM277.5,23.5v-13h8v13h-8ZM247.5,23.5v-13h13v13h-13ZM211.5,23.5v-13h29v13h-29ZM205.5,23.5v-13h2v13h-2ZM200.5,23.5v-13h2v13h-2ZM148.5,23.5v-13h49v13h-49ZM133.5,23.5v-13h7v13h-7ZM99.5,23.5v-13h7v13h-7ZM76.5,23.5v-13h16v13h-16ZM43.5,23.5v-13h20v13h-20ZM27.5,23.5v-13h11v13h-11ZM16.5,23.5v-13h6v13h-6ZM5.5,23.5v-13h6v13h-6Z"/>
    <path class="cls-2" d="M690,11v12h-2v-12h2M683,11v12h-5v-12h5M671,11v12h-10v-12h10M655,11v12h-5v-12h5M645,11v12h-7v-12h7M633,11v12h-2v-12h2M626,11v12h-5v-12h5M616,11v12h-28v-12h28M580,11v12h-19v-12h19M555,11v12h-10v-12h10M497,11v12h-12v-12h12M467,11v12h-7v-12h7M455,11v12h-2v-12h2M448,11v12h-5v-12h5M439,11v12h-19v-12h19M414,11v12h-10v-12h10M385,11v12h-1v-12h1M379,11v12h-28v-12h28M343,11v12h-19v-12h19M318,11v12h-10v-12h10M302,11v12h-5v-12h5M292,11v12h-2v-12h2M285,11v12h-7v-12h7M260,11v12h-12v-12h12M240,11v12h-28v-12h28M207,11v12h-1v-12h1M202,11v12h-1v-12h1M197,11v12h-48v-12h48M140,11v12h-6v-12h6M106,11v12h-6v-12h6M92,11v12h-15v-12h15M63,11v12h-19v-12h19M38,11v12h-10v-12h10M22,11v12h-5v-12h5M11,11v12h-5v-12h5M691,10h-4v14h4v-14h0ZM684,10h-7v14h7v-14h0ZM672,10h-12v14h12v-14h0ZM656,10h-7v14h7v-14h0ZM646,10h-9v14h9v-14h0ZM634,10h-4v14h4v-14h0ZM627,10h-7v14h7v-14h0ZM617,10h-30v14h30v-14h0ZM581,10h-21v14h21v-14h0ZM556,10h-12v14h12v-14h0ZM498,10h-14v14h14v-14h0ZM468,10h-9v14h9v-14h0ZM456,10h-4v14h4v-14h0ZM449,10h-7v14h7v-14h0ZM440,10h-21v14h21v-14h0ZM415,10h-12v14h12v-14h0ZM386,10h-3v14h3v-14h0ZM380,10h-30v14h30v-14h0ZM344,10h-21v14h21v-14h0ZM319,10h-12v14h12v-14h0ZM303,10h-7v14h7v-14h0ZM293,10h-4v14h4v-14h0ZM286,10h-9v14h9v-14h0ZM261,10h-14v14h14v-14h0ZM241,10h-30v14h30v-14h0ZM208,10h-3v14h3v-14h0ZM203,10h-3v14h3v-14h0ZM198,10h-50v14h50v-14h0ZM141,10h-8v14h8v-14h0ZM107,10h-8v14h8v-14h0ZM93,10h-17v14h17v-14h0ZM64,10h-21v14h21v-14h0ZM39,10h-12v14h12v-14h0ZM23,10h-7v14h7v-14h0ZM12,10h-7v14h7v-14h0Z"/>
  </g>
</svg>